<svg xmlns="http://www.w3.org/2000/svg" x="0px" y="0px" width="100" height="100" viewBox="0,0,256,256">
    <g transform=""><g fill="#00ffd9" fill-rule="nonzero" stroke="none" stroke-width="1" stroke-linecap="butt" stroke-linejoin="miter" stroke-miterlimit="10" stroke-dasharray="" stroke-dashoffset="0" font-family="none" font-size="none"  style="mix-blend-mode: normal"><g transform="scale(5.12,5.12)"><path d="M25,1c-6.698,0 -12.67569,2.77697 -15.80469,7.29297c-1.285,-0.284 -2.09331,-0.29297 -2.19531,-0.29297h-2c-0.553,0 -1,0.448 -1,1v7.02734c-1.913,1.618 -3,3.94966 -3,6.47266c0,2.542 1.10297,4.88786 3.04297,6.50586c0.532,11.068 9.83503,19.99414 20.95703,19.99414c11.122,0 20.42503,-8.92614 20.95703,-19.99414c1.94,-1.618 3.04297,-3.96386 3.04297,-6.50586c0,-2.522 -1.087,-4.85466 -3,-6.47266v-7.02734c0,-0.552 -0.447,-1 -1,-1h-2c-0.102,0 -0.91031,0.00897 -2.19531,0.29297c-3.129,-4.516 -9.10669,-7.29297 -15.80469,-7.29297zM25,6c4.773,0 9.03894,1.79617 11.33594,4.70117c-0.716,0.397 -1.48931,0.87108 -2.32031,1.45508l-0.02734,0.01953c-2.013,-1.062 -5.05928,-2.17578 -8.98828,-2.17578c-3.929,0 -6.97628,1.11283 -8.98828,2.17383l-0.02734,-0.01953c-0.831,-0.583 -1.60236,-1.05612 -2.31836,-1.45312c2.297,-2.904 6.56098,-4.70117 11.33398,-4.70117zM41,14.05078v12.52148l-0.03711,2.19336c-0.404,8.401 -7.56489,15.23438 -15.96289,15.23438c-8.398,0 -15.55889,-6.83337 -15.96289,-15.23437l-0.03711,-2.19336v-12.51953c0.829,0.284 2.26938,0.90036 4.10938,2.19336l2.23633,1.57227c0.383,0.268 0.89809,0.23683 1.24609,-0.07617c0.031,-0.028 3.1032,-2.74219 8.4082,-2.74219c5.261,0 8.3802,2.71719 8.4082,2.74219c0.189,0.17 0.42992,0.25781 0.66992,0.25781c0.2,0 0.40022,-0.05964 0.57422,-0.18164l2.23633,-1.57227c1.84,-1.293 3.28333,-1.91131 4.11133,-2.19531zM13.5,27c-0.276,0 -0.5,0.224 -0.5,0.5c0,2.485 2.015,4.5 4.5,4.5h6c0.276,0 0.5,-0.224 0.5,-0.5c0,-2.486 -2.015,-4.5 -4.5,-4.5zM30.5,27c-2.485,0 -4.5,2.015 -4.5,4.5c0,0.276 0.224,0.5 0.5,0.5h6c2.485,0 4.5,-2.015 4.5,-4.5c0,-0.276 -0.224,-0.5 -0.5,-0.5zM20.4707,34c-0.431,0 -0.63859,0.58763 -0.30859,0.89063c0.695,0.638 4.21289,2.10938 4.83789,2.10938c0.625,0 4.14189,-1.47138 4.83789,-2.10937c0.329,-0.303 0.12436,-0.89062 -0.30664,-0.89062zM20.96484,37.99414c-0.46199,0.01057 -0.85658,0.33628 -0.95451,0.78789c-0.09793,0.45161 0.12629,0.91152 0.5424,1.1125c0,0 2.11393,1.10547 4.44727,1.10547c2.33333,0 4.44727,-1.10547 4.44727,-1.10547c0.31965,-0.15976 0.52977,-0.47792 0.5512,-0.83463c0.02143,-0.3567 -0.14909,-0.69774 -0.44731,-0.89462c-0.29822,-0.19688 -0.67883,-0.21968 -0.99842,-0.05981c0,0 -1.88607,0.89453 -3.55273,0.89453c-1.66667,0 -3.55273,-0.89453 -3.55273,-0.89453c-0.14894,-0.07696 -0.31483,-0.11524 -0.48242,-0.11133z"></path></g></g><g fill-opacity="0.41176" fill="#ff00cc" fill-rule="nonzero" stroke="none" stroke-width="1" stroke-linecap="butt" stroke-linejoin="miter" stroke-miterlimit="10" stroke-dasharray="" stroke-dashoffset="0" font-family="none" font-size="none"  style="mix-blend-mode: normal"><g><path d="M82.686,98.08v3.16h-9.36v25.96h-3.82v-25.96h-9.34v-3.16zM104.006,127.2l-6.32,-11.78h-6.84v11.78h-3.86v-29.12h9.64c3.28,0 5.80333,0.74667 7.57,2.24c1.76667,1.49333 2.65,3.66667 2.65,6.52v0c0,1.81333 -0.49,3.39333 -1.47,4.74c-0.98,1.34667 -2.34333,2.35333 -4.09,3.02v0l6.84,12.36v0.24zM90.846,101.24v11.04h5.9c1.90667,0 3.42333,-0.49333 4.55,-1.48c1.12667,-0.98667 1.69,-2.30667 1.69,-3.96v0c0,-1.8 -0.53667,-3.18 -1.61,-4.14c-1.07333,-0.96 -2.62333,-1.44667 -4.65,-1.46v0zM131.086,127.2l-2.78,-7.6h-12.2l-2.74,7.6h-3.96l11.12,-29.12h3.36l11.14,29.12zM122.206,102.82l-4.94,13.62h9.9zM138.566,98.08l8.28,24.02l8.32,-24.02h4.2l-10.8,29.12h-3.4l-10.78,-29.12zM167.386,98.08v29.12h-3.84v-29.12zM182.986,114.22v0c-3.29333,-0.94667 -5.69,-2.11 -7.19,-3.49c-1.5,-1.38 -2.25,-3.08333 -2.25,-5.11v0c0,-2.29333 0.91667,-4.19 2.75,-5.69c1.83333,-1.5 4.21667,-2.25 7.15,-2.25v0c2,0 3.78333,0.38667 5.35,1.16c1.56667,0.77333 2.78,1.84 3.64,3.2c0.86,1.36 1.29,2.84667 1.29,4.46v0h-3.86c0,-1.76 -0.56,-3.14333 -1.68,-4.15c-1.12,-1.00667 -2.7,-1.51 -4.74,-1.51v0c-1.89333,0 -3.37,0.41667 -4.43,1.25c-1.06,0.83333 -1.59,1.99 -1.59,3.47v0c0,1.18667 0.50333,2.19 1.51,3.01c1.00667,0.82 2.72,1.57 5.14,2.25c2.42,0.68 4.31333,1.43 5.68,2.25c1.36667,0.82 2.38,1.77667 3.04,2.87c0.66,1.09333 0.99,2.38 0.99,3.86v0c0,2.36 -0.92,4.25 -2.76,5.67c-1.84,1.42 -4.3,2.13 -7.38,2.13v0c-2,0 -3.86667,-0.38333 -5.6,-1.15c-1.73333,-0.76667 -3.07,-1.81667 -4.01,-3.15c-0.94,-1.33333 -1.41,-2.84667 -1.41,-4.54v0h3.86c0,1.76 0.65,3.15 1.95,4.17c1.3,1.02 3.03667,1.53 5.21,1.53v0c2.02667,0 3.58,-0.41333 4.66,-1.24c1.08,-0.82667 1.62,-1.95333 1.62,-3.38c0,-1.42667 -0.5,-2.53 -1.5,-3.31c-1,-0.78 -2.81333,-1.55 -5.44,-2.31z"></path></g></g></g>
</svg>